<?xml version="1.0" encoding="UTF-8" standalone="no"?><!DOCTYPE svg PUBLIC "-//W3C//DTD SVG 1.1//EN" "http://www.w3.org/Graphics/SVG/1.1/DTD/svg11.dtd"><svg width="100%" height="100%" viewBox="0 0 169 25" version="1.1" xmlns="http://www.w3.org/2000/svg" xmlns:xlink="http://www.w3.org/1999/xlink" xml:space="preserve" xmlns:serif="http://www.serif.com/" style="fill-rule:evenodd;clip-rule:evenodd;stroke-linejoin:round;stroke-miterlimit:2;"><g><path d="M87.054,8.308c0,4.389 3.557,7.947 7.946,7.947c4.388,0 7.946,-3.558 7.946,-7.947c0,-4.388 -3.558,-7.946 -7.946,-7.946c-4.389,0 -7.946,3.558 -7.946,7.946Z" style="fill:#444445;"/><path d="M95.13,3.233c-2.708,0.006 -4.902,2.203 -4.902,4.913c0,2.713 2.2,4.912 4.913,4.912c2.709,0 4.906,-2.194 4.912,-4.902l0,0l0,-4.923l-4.923,0Z" style="fill:url(#_Radial1);"/><path d="M103.954,5.805l0,13.582c0.786,-0.52 1.672,-0.842 2.521,-0.898l0,-3.94c0.484,0.466 0.973,0.801 1.464,1.006c0.491,0.205 1.023,0.307 1.595,0.307c1.279,0 2.385,-0.488 3.32,-1.469c0.936,-0.978 1.403,-2.195 1.403,-3.65c0,-1.51 -0.452,-2.747 -1.356,-3.71c-0.905,-0.964 -2.004,-1.447 -3.295,-1.447c-0.597,0 -1.155,0.111 -1.675,0.333c-0.522,0.222 -1.007,0.553 -1.456,0.997l0,-1.111l-2.521,0Zm7.024,2.869c0.505,0.53 0.758,1.207 0.758,2.033c0,0.834 -0.259,1.519 -0.772,2.055c-0.514,0.536 -1.148,0.805 -1.9,0.805c-0.777,0 -1.421,-0.263 -1.931,-0.793c-0.512,-0.528 -0.768,-1.22 -0.768,-2.077c0,-0.837 0.256,-1.517 0.768,-2.036c0.51,-0.52 1.154,-0.779 1.931,-0.779c0.771,0 1.408,0.265 1.914,0.792" style="fill:#444445;"/><path d="M125.228,11.018c0,-1.631 -0.49,-2.945 -1.467,-3.939c-0.98,-0.994 -2.251,-1.493 -3.813,-1.493c-1.471,0 -2.694,0.494 -3.67,1.478c-0.976,0.985 -1.462,2.224 -1.462,3.715c0,1.455 0.49,2.666 1.469,3.633c0.98,0.967 2.247,1.45 3.805,1.45c1.004,0 1.87,-0.172 2.6,-0.514c0.729,-0.341 1.356,-0.871 1.881,-1.585l-2.129,-0.948c-0.68,0.647 -1.492,0.97 -2.436,0.97c-0.791,0 -1.44,-0.206 -1.948,-0.621c-0.51,-0.414 -0.824,-0.972 -0.941,-1.674l8.103,0l0.008,-0.472Zm-8.001,-1.496c0.285,-0.61 0.592,-1.035 0.927,-1.278c0.53,-0.386 1.148,-0.581 1.854,-0.581c0.649,0 1.219,0.173 1.711,0.518c0.492,0.345 0.82,0.791 0.988,1.341l-5.48,0Z" style="fill:#444445;"/><path d="M126.006,15.644l2.521,0l0,-3.912c0,-1.015 0.036,-1.674 0.109,-1.98c0.137,-0.584 0.388,-1.042 0.747,-1.373c0.36,-0.332 0.791,-0.497 1.293,-0.497c0.387,0 0.711,0.101 0.975,0.3c0.263,0.2 0.446,0.491 0.553,0.873c0.106,0.383 0.159,1.155 0.159,2.318l0,4.271l2.521,0l0,-6.479c0,-1.13 -0.291,-1.983 -0.872,-2.561c-0.692,-0.678 -1.532,-1.018 -2.523,-1.018c-0.482,0 -0.955,0.092 -1.418,0.277c-0.462,0.184 -0.975,0.514 -1.544,0.985l0,-1.043l-2.521,0l0,9.839Z" style="fill:#444445;"/><path d="M136.1,5.805l0,13.56c0.788,-0.514 1.674,-0.828 2.522,-0.877l0,-3.939c0.484,0.466 0.972,0.801 1.463,1.006c0.492,0.205 1.023,0.307 1.595,0.307c1.279,0 2.386,-0.488 3.32,-1.469c0.936,-0.978 1.403,-2.195 1.403,-3.65c0,-1.51 -0.452,-2.747 -1.356,-3.71c-0.904,-0.964 -2.004,-1.447 -3.295,-1.447c-0.596,0 -1.154,0.111 -1.675,0.333c-0.522,0.222 -1.007,0.553 -1.455,0.997l0,-1.111l-2.522,0Zm7.024,2.869c0.505,0.53 0.758,1.207 0.758,2.033c0,0.834 -0.259,1.519 -0.772,2.055c-0.514,0.536 -1.147,0.805 -1.899,0.805c-0.778,0 -1.422,-0.263 -1.932,-0.793c-0.512,-0.528 -0.767,-1.22 -0.767,-2.077c0,-0.837 0.255,-1.517 0.767,-2.036c0.51,-0.52 1.154,-0.779 1.932,-0.779c0.771,0 1.408,0.265 1.913,0.792" style="fill:#f58b1f;"/><path d="M154.744,6.917c-0.444,-0.444 -0.927,-0.776 -1.449,-0.998c-0.524,-0.222 -1.083,-0.333 -1.677,-0.333c-1.294,0 -2.393,0.483 -3.298,1.447c-0.906,0.963 -1.358,2.2 -1.358,3.71c0,1.455 0.467,2.672 1.403,3.65c0.935,0.981 2.044,1.469 3.327,1.469c0.57,0 1.1,-0.102 1.589,-0.302c0.488,-0.202 0.977,-0.533 1.463,-0.992l0,1.076l2.52,0l0,-9.839l-2.52,0l0,1.112Zm-0.658,1.744c0.511,0.519 0.767,1.199 0.767,2.036c0,0.857 -0.256,1.549 -0.767,2.077c-0.512,0.53 -1.156,0.793 -1.932,0.793c-0.753,0 -1.387,-0.269 -1.901,-0.805c-0.513,-0.536 -0.77,-1.221 -0.77,-2.055c0,-0.826 0.252,-1.503 0.757,-2.032c0.505,-0.528 1.141,-0.793 1.906,-0.793c0.781,0 1.428,0.259 1.94,0.779" style="fill:#f58b1f;"/><path d="M159.509,19.251l0.087,0c0.907,-0.307 1.847,-0.569 2.687,-0.557l5.898,-12.889l-2.519,0l-2.826,6.173l-2.55,-6.173l-2.479,0l3.726,9.02l-2.024,4.426Z" style="fill:#f58b1f;"/><path d="M137.084,22.221l0.477,0l0.988,2.563l-0.481,0l-0.241,-0.678l-1.023,0l-0.241,0.678l-0.463,0l0.984,-2.563Zm-0.158,1.544l0.783,0l-0.385,-1.102l-0.01,0l-0.388,1.102Z" style="fill:#4a4a4a;fill-rule:nonzero;"/><g transform="matrix(0.409322,0,0,0.409322,-2.37584,-749.142)"><text x="3.28px" y="1866.89px" style="font-family:'LucidaGrande', 'Lucida Grande', sans-serif;font-weight:500;font-size:36px;">Powered</text><text x="160.539px" y="1866.89px" style="font-family:'LucidaGrande', 'Lucida Grande', sans-serif;font-weight:500;font-size:36px;">by</text></g><path d="M152.209,23.034c-0.019,-0.074 -0.046,-0.142 -0.079,-0.205c-0.034,-0.062 -0.077,-0.116 -0.13,-0.161c-0.052,-0.046 -0.114,-0.081 -0.184,-0.106c-0.071,-0.025 -0.153,-0.038 -0.246,-0.038c-0.137,0 -0.255,0.028 -0.354,0.083c-0.099,0.055 -0.18,0.128 -0.242,0.221c-0.063,0.092 -0.109,0.196 -0.139,0.314c-0.029,0.117 -0.044,0.237 -0.044,0.359c0,0.122 0.015,0.241 0.044,0.359c0.03,0.117 0.076,0.222 0.139,0.314c0.062,0.092 0.143,0.166 0.242,0.221c0.099,0.055 0.217,0.082 0.354,0.082c0.1,0 0.189,-0.017 0.265,-0.052c0.077,-0.035 0.143,-0.082 0.198,-0.143c0.055,-0.061 0.098,-0.133 0.129,-0.214c0.031,-0.081 0.051,-0.169 0.061,-0.262l0.438,0c-0.01,0.153 -0.042,0.293 -0.099,0.42c-0.056,0.127 -0.132,0.236 -0.228,0.328c-0.095,0.093 -0.208,0.164 -0.337,0.214c-0.129,0.05 -0.272,0.075 -0.427,0.075c-0.192,0 -0.364,-0.035 -0.516,-0.105c-0.152,-0.071 -0.28,-0.167 -0.386,-0.289c-0.105,-0.123 -0.186,-0.265 -0.242,-0.428c-0.056,-0.162 -0.084,-0.336 -0.084,-0.52c0,-0.182 0.028,-0.354 0.084,-0.517c0.056,-0.163 0.137,-0.305 0.242,-0.427c0.106,-0.123 0.234,-0.219 0.386,-0.291c0.152,-0.072 0.324,-0.108 0.516,-0.108c0.143,0 0.278,0.02 0.405,0.059c0.127,0.04 0.239,0.097 0.336,0.173c0.097,0.075 0.175,0.167 0.235,0.274c0.06,0.108 0.097,0.231 0.111,0.37l-0.448,0Z" style="fill:#4a4a4a;fill-rule:nonzero;"/><path d="M154.162,22.524c-0.137,0 -0.255,0.028 -0.354,0.083c-0.099,0.055 -0.18,0.128 -0.242,0.221c-0.063,0.092 -0.109,0.196 -0.139,0.314c-0.029,0.117 -0.044,0.237 -0.044,0.359c0,0.122 0.015,0.241 0.044,0.359c0.03,0.117 0.076,0.222 0.139,0.314c0.062,0.092 0.143,0.166 0.242,0.221c0.099,0.055 0.217,0.082 0.354,0.082c0.136,0 0.254,-0.027 0.353,-0.082c0.1,-0.055 0.18,-0.129 0.243,-0.221c0.062,-0.092 0.108,-0.197 0.138,-0.314c0.03,-0.118 0.045,-0.237 0.045,-0.359c0,-0.122 -0.015,-0.242 -0.045,-0.359c-0.03,-0.118 -0.076,-0.222 -0.138,-0.314c-0.063,-0.093 -0.143,-0.166 -0.243,-0.221c-0.099,-0.055 -0.217,-0.083 -0.353,-0.083Zm0,-0.366c0.191,0 0.363,0.036 0.515,0.108c0.152,0.072 0.28,0.168 0.386,0.291c0.105,0.122 0.186,0.264 0.242,0.427c0.056,0.163 0.084,0.335 0.084,0.517c0,0.184 -0.028,0.358 -0.084,0.52c-0.056,0.163 -0.137,0.305 -0.242,0.428c-0.106,0.122 -0.234,0.218 -0.386,0.289c-0.152,0.07 -0.324,0.105 -0.515,0.105c-0.192,0 -0.364,-0.035 -0.516,-0.105c-0.151,-0.071 -0.28,-0.167 -0.385,-0.289c-0.106,-0.123 -0.187,-0.265 -0.243,-0.428c-0.056,-0.162 -0.084,-0.336 -0.084,-0.52c0,-0.182 0.028,-0.354 0.084,-0.517c0.056,-0.163 0.137,-0.305 0.243,-0.427c0.105,-0.123 0.234,-0.219 0.385,-0.291c0.152,-0.072 0.324,-0.108 0.516,-0.108Z" style="fill:#4a4a4a;fill-rule:nonzero;"/><path d="M155.792,22.219l0.631,0l0.708,2.007l0.007,0l0.689,-2.007l0.625,0l0,2.563l-0.427,0l0,-1.978l-0.008,0l-0.71,1.978l-0.37,0l-0.711,-1.978l-0.007,0l0,1.978l-0.427,0l0,-2.563Z" style="fill:#4a4a4a;fill-rule:nonzero;"/><path d="M158.99,22.219l1.131,0c0.182,0 0.331,0.026 0.445,0.079c0.115,0.053 0.204,0.119 0.266,0.197c0.062,0.079 0.105,0.166 0.128,0.259c0.022,0.093 0.034,0.179 0.034,0.258c0,0.079 -0.012,0.165 -0.034,0.257c-0.023,0.092 -0.066,0.178 -0.128,0.257c-0.062,0.079 -0.151,0.144 -0.266,0.196c-0.114,0.051 -0.263,0.077 -0.445,0.077l-0.682,0l0,0.983l-0.449,0l0,-2.563Zm0.449,1.214l0.657,0c0.05,0 0.102,-0.008 0.155,-0.022c0.052,-0.014 0.101,-0.038 0.145,-0.07c0.044,-0.032 0.08,-0.075 0.108,-0.129c0.027,-0.054 0.041,-0.122 0.041,-0.203c0,-0.084 -0.012,-0.153 -0.036,-0.208c-0.024,-0.055 -0.056,-0.099 -0.097,-0.131c-0.041,-0.033 -0.087,-0.055 -0.14,-0.067c-0.053,-0.012 -0.109,-0.018 -0.169,-0.018l-0.664,0l0,0.848Z" style="fill:#4a4a4a;fill-rule:nonzero;"/><path d="M161.805,22.219l0.478,0l0.987,2.563l-0.481,0l-0.241,-0.678l-1.023,0l-0.241,0.678l-0.463,0l0.984,-2.563Zm-0.158,1.544l0.783,0l-0.384,-1.102l-0.011,0l-0.388,1.102Z" style="fill:#4a4a4a;fill-rule:nonzero;"/><path d="M163.496,22.219l0.474,0l1.17,1.888l0.007,0l0,-1.888l0.428,0l0,2.563l-0.474,0l-1.167,-1.884l-0.011,0l0,1.884l-0.427,0l0,-2.563Z" style="fill:#4a4a4a;fill-rule:nonzero;"/><path d="M166.774,23.777l-0.962,-1.558l0.52,0l0.679,1.149l0.667,-1.149l0.503,0l-0.958,1.558l0,1.005l-0.449,0l0,-1.005Z" style="fill:#4a4a4a;fill-rule:nonzero;"/><text x="139.394px" y="24.843px" style="font-family:'Arial-BoldMT', 'Arial', sans-serif;font-weight:700;font-size:3.666px;fill:#4a4a4a;">BBV<tspan x="146.863px " y="24.843px ">A</tspan></text></g><defs><radialGradient id="_Radial1" cx="0" cy="0" r="1" gradientUnits="userSpaceOnUse" gradientTransform="matrix(3.19651,4.16937,-4.10977,3.24287,93.2708,6.34385)"><stop offset="0" style="stop-color:#f7bd15;stop-opacity:1"/><stop offset="1" style="stop-color:#f47f20;stop-opacity:1"/></radialGradient></defs></svg>